<?xml version="1.0" standalone="no"?>
<!DOCTYPE svg PUBLIC "-//W3C//DTD SVG 20010904//EN"
 "http://www.w3.org/TR/2001/REC-SVG-20010904/DTD/svg10.dtd">
<svg version="1.0" xmlns="http://www.w3.org/2000/svg"
 width="550.000000pt" height="550.000000pt" viewBox="0 0 550.000000 550.000000"
 preserveAspectRatio="xMidYMid meet">
<metadata>
Created by potrace 1.14, written by Peter Selinger 2001-2017
</metadata>
<g transform="translate(0.000000,550.000000) scale(0.100000,-0.100000)"
fill="#000000" stroke="none">
<path d="M2711 5188 c-10 -24 -80 -199 -157 -390 l-139 -348 -305 0 -305 0
-39 125 c-22 68 -37 126 -35 128 2 2 -1 10 -7 18 -9 10 -60 160 -79 229 -1 3
-4 12 -8 20 -3 8 -18 54 -33 103 l-28 87 -157 0 -157 0 -7 -46 c-3 -25 -8 -56
-11 -67 -2 -12 -7 -35 -9 -52 -3 -16 -8 -37 -10 -45 -2 -8 -6 -31 -9 -50 -3
-19 -8 -46 -11 -60 -5 -23 -12 -65 -21 -115 -2 -11 -8 -42 -14 -70 -5 -27 -12
-63 -15 -80 -7 -43 -16 -87 -21 -107 -5 -17 -31 -18 -370 -18 l-364 0 0 -1820
0 -1820 24 0 c13 0 27 6 30 13 3 6 3 2 0 -10 -3 -13 -7 -34 -10 -48 -2 -14 -6
-35 -8 -47 -45 -234 -106 -558 -106 -562 0 -3 146 -6 325 -6 315 0 325 1 325
19 0 14 6 19 21 18 18 -1 18 -3 5 -13 -9 -6 -16 -14 -16 -18 0 -3 106 -6 235
-6 180 0 237 3 240 13 9 26 95 276 125 365 l33 92 437 0 438 0 20 -58 c12 -31
54 -153 93 -269 l72 -213 87 0 86 0 23 73 c12 39 40 119 61 177 21 58 51 147
67 198 l28 92 422 0 c392 0 423 -1 431 -17 4 -10 39 -116 78 -235 l69 -218
415 -1 c450 -2 733 0 738 6 2 1 -10 70 -27 151 -17 82 -33 164 -36 183 -3 19
-8 37 -10 40 -2 4 -6 25 -10 49 l-6 42 151 0 150 0 0 1820 0 1820 -105 0 -105
0 0 95 0 95 -435 0 -434 0 -6 38 c-6 33 -18 94 -30 147 -13 54 -105 510 -105
517 0 12 -315 5 -316 -7 0 -5 -3 -17 -7 -25 -23 -61 -130 -418 -189 -633 l-11
-37 -230 2 -230 3 -59 160 c-33 88 -73 194 -89 235 -15 41 -50 136 -78 210
-27 74 -52 143 -56 153 -6 14 -21 17 -96 17 l-90 0 -18 -42z m931 -800 c-9
-12 -35 -90 -36 -113 -1 -6 -64 -10 -170 -10 l-168 0 -24 62 -23 63 212 3
c117 1 214 3 216 5 2 1 -1 -4 -7 -10z m-2526 -25 c-3 -16 -8 -45 -12 -65 l-6
-38 -244 0 -244 0 -1 -1297 c-1 -714 -2 -1309 -4 -1323 -1 -14 -6 -45 -10 -70
-4 -25 -8 -55 -8 -67 -1 -13 -5 -23 -10 -23 -4 0 -6 -3 -4 -8 5 -7 -4 -69 -17
-122 -3 -14 -9 -38 -12 -55 -3 -16 -9 -48 -14 -70 -5 -22 -12 -56 -15 -75 -3
-19 -13 -73 -21 -120 -9 -47 -18 -96 -21 -110 -2 -13 -6 -27 -9 -29 -2 -2 -4
784 -4 1747 l0 1752 331 0 331 0 -6 -27z m1268 10 c-3 -10 -10 -27 -15 -38 -5
-11 -13 -32 -19 -48 l-10 -27 -236 2 -237 3 -18 55 c-10 30 -19 58 -19 63 0 4
126 7 280 7 262 0 279 -1 274 -17z m2746 -48 l0 -65 -385 0 -385 0 -5 23 c-3
12 -9 41 -14 65 l-9 42 399 0 399 0 0 -65z m-4048 -145 c-2 -8 -6 -26 -8 -40
-3 -14 -11 -61 -20 -105 -8 -44 -17 -96 -20 -115 -3 -19 -7 -43 -10 -52 -3
-10 -7 -30 -10 -45 -4 -24 -12 -68 -49 -268 -3 -16 -12 -66 -21 -110 -8 -44
-19 -104 -24 -133 -5 -30 -11 -61 -14 -70 -3 -10 -7 -33 -10 -52 -3 -19 -8
-46 -11 -60 -5 -23 -22 -117 -31 -167 -6 -34 -12 -65 -19 -93 -3 -14 -8 -38
-10 -55 -2 -16 -6 -43 -9 -60 -11 -59 -19 -100 -22 -115 -2 -8 -5 -28 -8 -45
-2 -16 -6 -37 -9 -45 -3 -8 -8 -33 -11 -55 -3 -22 -7 -49 -10 -60 -2 -11 -13
-69 -24 -130 -12 -60 -24 -123 -27 -140 -3 -16 -8 -43 -11 -60 -2 -16 -8 -48
-13 -70 -5 -24 -9 404 -10 1063 l-1 1102 208 -2 c178 -3 207 -5 204 -18z
m1228 14 c0 -15 -223 -564 -229 -564 -4 0 -46 123 -95 273 -49 149 -91 278
-93 285 -4 9 41 12 206 12 116 0 211 -3 211 -6z m1266 -12 c-3 -9 -23 -76 -45
-147 -22 -72 -44 -143 -51 -160 -6 -16 -11 -31 -10 -33 6 -10 -14 -62 -20 -55
-5 4 -31 69 -59 143 -27 74 -61 165 -75 203 l-26 67 146 0 c134 0 145 -1 140
-18z m1554 -1647 l0 -1665 -39 0 c-43 0 -48 4 -54 41 -3 13 -10 42 -15 64 -16
61 -30 145 -37 229 -2 28 -16 105 -30 171 -32 146 -33 150 -35 150 -2 0 -6 20
-14 65 -4 19 -9 42 -11 50 -2 8 -6 26 -9 40 -2 14 -9 44 -15 68 -7 23 -9 47
-6 52 3 6 2 10 -2 10 -7 0 -18 44 -39 160 -3 14 -7 32 -9 40 -2 8 -7 29 -9 45
-3 17 -17 84 -31 151 -13 66 -27 138 -31 160 -3 21 -8 42 -10 45 -2 3 -6 21
-9 40 -3 19 -30 155 -61 304 -30 148 -56 279 -58 290 -3 11 -32 157 -66 325
-34 168 -64 315 -66 326 -2 12 -13 66 -25 120 -11 55 -22 110 -24 124 -3 21
-31 152 -50 238 l-5 22 380 0 380 0 0 -1665z m210 -95 l0 -1760 -130 0 c-117
0 -130 2 -131 18 0 9 -2 24 -4 32 -2 8 -7 30 -10 48 l-7 32 66 0 66 0 0 1695
0 1695 75 0 75 0 0 -1760z m-2522 1378 c16 -51 50 -156 75 -233 25 -77 84
-261 132 -410 47 -148 89 -277 92 -285 3 -8 7 -20 9 -27 1 -6 7 -27 13 -46 7
-19 10 -45 7 -58 -4 -20 -92 -313 -128 -424 -5 -16 -11 -37 -13 -45 -1 -8 -10
-37 -18 -65 -9 -27 -27 -88 -41 -135 -14 -47 -45 -150 -69 -230 l-45 -145 -67
0 -66 0 -19 55 c-10 30 -68 210 -130 400 -61 190 -127 394 -147 453 l-35 108
57 162 c31 89 82 232 112 317 30 85 58 166 63 180 4 14 38 111 75 215 37 105
76 216 87 248 11 31 21 57 23 57 2 0 17 -42 33 -92z m1139 -495 c-4 -3 -2 -12
4 -20 6 -7 9 -13 6 -13 -3 0 0 -19 5 -42 11 -49 18 -84 23 -113 2 -11 6 -30 8
-41 3 -12 8 -39 11 -60 4 -22 9 -52 12 -69 8 -43 13 -74 19 -120 3 -22 8 -49
10 -60 16 -76 26 -139 28 -162 0 -13 3 -23 7 -23 3 0 6 -10 6 -22 2 -28 13
-105 20 -138 4 -14 8 -38 11 -55 2 -16 8 -55 14 -85 6 -30 12 -68 14 -85 7
-58 17 -110 30 -165 22 -89 57 -261 90 -450 3 -19 8 -44 12 -55 3 -11 3 -18 0
-15 -3 3 -46 115 -96 250 -50 135 -108 288 -127 340 -20 52 -44 118 -55 145
-126 341 -213 573 -220 586 -6 11 7 61 37 150 25 74 47 141 49 149 10 44 72
180 82 180 4 0 3 -3 0 -7z m-2373 -64 c-3 -5 -1 -9 5 -9 8 0 27 -40 22 -48 -1
-1 6 -16 15 -33 9 -17 18 -43 20 -57 3 -15 11 -33 17 -41 7 -8 11 -17 10 -20
-2 -3 15 -61 38 -128 41 -124 42 -135 14 -198 -14 -32 -417 -1036 -467 -1165
-16 -41 -32 -77 -35 -80 -5 -6 -4 2 28 180 12 69 23 132 24 140 1 8 5 29 8 45
10 44 17 85 23 130 3 22 8 47 11 55 3 8 7 29 9 45 3 17 9 53 14 80 6 28 12 68
16 90 3 22 10 59 15 83 5 23 12 59 14 80 3 20 10 57 15 82 9 41 24 125 51 285
16 95 21 128 22 153 1 12 4 22 7 22 4 0 6 10 5 23 -1 12 1 31 6 43 8 24 23
116 23 157 1 15 3 27 6 27 3 0 7 15 8 33 1 17 7 42 14 54 l11 22 18 -21 c10
-11 16 -25 13 -29z m2186 -454 c-16 -47 -23 -40 -8 8 6 20 13 35 16 33 2 -3
-1 -21 -8 -41z m-30 -82 c-11 -17 -11 -17 -6 0 3 10 6 24 7 30 0 9 2 9 5 0 3
-7 0 -20 -6 -30z m-10 -43 c0 -5 -5 -10 -11 -10 -5 0 -7 5 -4 10 3 6 8 10 11
10 2 0 4 -4 4 -10z m-59 -163 c-10 -9 -11 -8 -5 6 3 10 9 15 12 12 3 -3 0 -11
-7 -18z m-1570 -733 l26 -74 -60 0 c-52 0 -58 2 -52 18 3 9 16 45 28 79 12 34
24 60 27 57 2 -3 16 -39 31 -80z m1373 -1 c9 -28 16 -57 16 -62 0 -6 -20 -11
-45 -11 -25 0 -45 3 -45 8 0 20 45 131 50 125 4 -5 15 -31 24 -60z m-1326
-128 c-3 -3 -9 2 -12 12 -6 14 -5 15 5 6 7 -7 10 -15 7 -18z m149 -457 c8 -10
86 -230 110 -310 5 -17 -16 -18 -345 -18 l-351 0 49 143 c26 78 53 154 59 170
l11 27 229 0 c171 0 231 -3 238 -12z m1455 -172 c32 -99 56 -181 53 -184 -3
-3 -5 2 -5 11 0 16 -29 17 -340 17 -187 0 -340 2 -340 4 0 4 92 288 105 324 4
10 56 12 236 10 l232 -3 59 -179z m108 -338 c0 -4 -180 -8 -400 -8 -313 0
-400 3 -400 13 0 6 9 35 19 62 l19 50 356 3 c274 2 356 5 357 15 1 12 49 -120
49 -135z m-1414 85 c8 -21 17 -46 19 -56 2 -9 7 -22 10 -27 4 -7 -136 -10
-409 -10 -231 0 -416 4 -416 9 0 7 14 52 35 109 3 9 87 12 375 12 l370 0 16
-37z m-1388 -218 c-9 -57 -26 -99 -23 -56 1 12 4 24 8 27 4 4 7 20 7 35 0 27
10 63 15 57 2 -2 -1 -30 -7 -63z m-18 -111 c-6 -14 -10 -36 -10 -50 0 -13 -4
-24 -9 -24 -4 0 -5 19 0 43 4 23 8 45 9 50 0 4 4 7 10 7 6 0 6 -9 0 -26z m-24
-131 c-12 -84 -18 -114 -23 -109 -6 5 18 156 25 156 2 0 1 -21 -2 -47z"/>
</g>
</svg>
